PathFileType	4	(X/Y/Z)	Patient4_TMGait_0pt7_02_right_08.trc.trc
DataRate	CameraRate	NumFrames	NumMarkers	Units	OrigDataRate	OrigDataStartFrame	OrigNumFrames
85.889570552147	85.889570552147	4	33	mm	85.889570552147	36	       141
Frame#	Time	Sacral			L.Shoulder			Chest			R.Shoulder			Neck			R.ASIS			L.ASIS			R.Thigh.Superior			R.Thigh.Lateral			R.Thigh.Inferior			R.Patella			L.Thigh.Superior			L.Thigh.Lateral			L.Thigh.Inferior			L.Patella			L.Shank.Superior			L.Shank.Lateral			L.Shank.Inferior			R.Shank.Superior			R.Shank.Lateral			R.Shank.Inferior			R.Heel			R.Midfoot.Superior			R.Midfoot.Lateral			R.Toe			L.Heel			L.Midfoot.Lateral			L.Midfoot.Superior			L.Toe			L.Elbow			L.Wrist			R.Elbow			R.Wrist			
		X1	Y1	Z1	X2	Y2	Z2	X3	Y3	Z3	X4	Y4	Z4	X5	Y5	Z5	X6	Y6	Z6	X7	Y7	Z7	X8	Y8	Z8	X9	Y9	Z9	X10	Y10	Z10	X11	Y11	Z11	X12	Y12	Z12	X13	Y13	Z13	X14	Y14	Z14	X15	Y15	Z15	X16	Y16	Z16	X17	Y17	Z17	X18	Y18	Z18	X19	Y19	Z19	X20	Y20	Z20	X21	Y21	Z21	X22	Y22	Z22	X23	Y23	Z23	X24	Y24	Z24	X25	Y25	Z25	X26	Y26	Z26	X27	Y27	Z27	X28	Y28	Z28	X29	Y29	Z29	X30	Y30	Z30	X31	Y31	Z31	X32	Y32	Z32	X33	Y33	Z33	

36	8.597500000000	791.233087647197	997.448800645712	502.134450714118	1004.550533878649	1416.543289672041	323.969529641181	1093.347433680924	1340.240374930158	491.679041085813	1004.741891883477	1428.535769302383	656.999260812166	1003.847223021106	1478.405439119865	475.677460205618	1012.991930332470	926.077169657653	628.341639923773	1009.453780332292	951.801666154205	353.399583784808	1086.527764957617	751.301798083936	601.953523686238	1023.694685821557	630.852725296469	661.229629176354	1116.427877519299	591.877484136415	588.437264416305	1135.527423946118	500.453149760301	598.810598513744	1025.597196582376	726.852098887798	370.684982669775	921.258478835945	624.374036883439	304.525882406287	995.242578323463	529.724244596011	360.838694805625	979.979950448407	448.175542052085	359.049859961102	914.354096918516	392.910445937378	351.032960027297	777.702526108351	342.702593645796	298.568405847943	769.177164478835	213.973446535667	355.490304011500	1107.602413926626	408.650344774224	604.525893969073	1036.295329537892	303.429770153063	663.969049363701	1084.452476279703	208.710128441436	605.484542925760	956.971206857248	43.690082399324	572.076804050765	1126.735566000647	99.046876683969	615.788901827232	1037.054974921518	37.116365836279	649.942314790274	1245.388916631762	45.759382055623	648.473547721207	583.176456982250	128.213233860928	388.015022899645	649.158548165835	89.689023441219	311.741220630511	749.355030850175	115.044192889153	336.187410318255	844.285122287495	32.539864441521	315.564860366614	976.961337994639	1079.303113024760	186.602919204020	1226.888035845168	1054.763385481846	220.562272369091	846.759538836150	1121.474221388361	769.055618693798	801.591537441447	863.357210713789	773.380980214431	
37	8.609142857143	790.855898346077	999.550465755718	506.155664281672	1004.368341691770	1417.499487974289	325.930558404865	1094.245851422337	1341.287667843506	493.072323150870	1007.334688758131	1430.293797972991	658.872760004766	1004.969429632023	1479.624575869219	477.397467455674	1013.041588825529	927.620381793621	631.308850926990	1008.661662585012	953.120378139756	356.373203960745	1084.401124749345	750.309736441717	605.945274455191	1019.312443661482	630.964840507355	663.705702710691	1111.469797693158	591.063319406305	590.604922605382	1129.363778513612	499.690337928111	600.323315080236	1029.882934343369	729.617561331966	373.987571390076	930.071524058176	624.459507081093	307.024362440081	1007.213096046648	531.429875621962	363.300805809754	992.993174894908	448.484844712661	360.663119473197	925.074483507751	393.713546041195	352.581175169578	786.467155535216	349.066789428362	300.019505309770	773.381081378416	220.345274021790	355.887675109326	1100.978124407495	408.269483088542	605.942609862844	1029.392552780347	303.187642119857	665.077625527244	1077.066326597728	208.480570183817	606.127652794346	949.010938472012	43.679861559867	572.289935819681	1118.786793369553	99.071483308643	616.059778605416	1029.078966806356	37.074943874393	650.138512702437	1237.442127972417	45.513005831817	648.762119797114	584.037154564851	144.554333282420	387.879206907982	647.599134447577	101.727479057750	311.738319814202	749.241876067492	120.529609802282	336.210459862141	837.803651031537	31.379845349114	315.849385661159	969.894142086972	1078.620629580210	193.277576267093	1219.208777131091	1040.792928152188	224.147685124734	854.417542965189	1120.145157662519	772.131379085964	817.909220881975	860.582457356514	775.156862803476	
38	8.620785714286	790.271172002410	1001.590189964020	510.119174139595	1003.838430302326	1418.315833576836	327.740976969698	1094.988847577600	1342.182177093542	494.221477246005	1009.941531313870	1431.848303474914	660.578828682305	1005.898945008925	1480.708906631462	478.988078937009	1012.945211195261	929.021584690798	634.078843126914	1007.542651633933	954.227057383676	359.147854709439	1081.957817522505	749.255396537242	609.705982965545	1014.708929611371	631.083847623412	666.126271325030	1106.203257548779	590.247432584643	592.663181116095	1122.855799344113	498.950251183808	601.800428443221	1034.051963903745	732.645088527637	377.350530815186	939.137430980209	624.904586848330	309.354902338823	1019.241177936109	533.687289282629	365.868874866514	1006.248582696135	449.418697835823	362.485330452406	936.299723247521	394.994942158575	354.220547986226	796.077435650987	355.666052231680	301.435752877046	778.557532477369	227.129336891567	356.416531476109	1094.090873926091	407.909949650875	607.322009896136	1022.298925656055	302.930076427490	666.159667409992	1069.567813625587	208.267804796930	606.759503032887	941.019101908395	43.679182567325	572.479755491184	1110.813591865042	98.989802483810	616.313877739408	1021.069881536419	37.023332021733	650.306437524609	1229.476152351794	45.176899949773	649.005805831438	586.400345602994	161.127441940616	387.804061731845	647.506229550779	114.324489000520	311.790634211658	750.253123980640	126.658366365542	336.448396789590	832.424670626984	30.533273943086	316.229427846369	962.928209031987	1077.954381538038	199.844504866833	1210.716356222382	1025.796308419498	227.656188344929	862.300128423014	1118.756490333506	775.327364909152	835.346671891503	857.933381948490	777.082553319307	
39	8.632428571429	789.492717931540	1003.530040300062	513.996004572832	1002.978319600438	1418.988357151730	329.398146948718	1095.560142126112	1342.901643882412	495.127524843920	1012.529495747346	1433.171492591984	662.111515596373	1006.647824230639	1481.653929695558	480.453533410770	1012.707504546239	930.290889585371	636.648444857427	1006.083743688000	955.115239196471	361.728728669568	1079.263224357812	748.224318469575	613.127329742152	1010.033978149074	631.247823786492	668.488677293527	1100.757494570617	589.463723337512	594.595024164224	1116.132555974871	498.252390527474	603.249863124877	1038.027095643229	735.959767163469	380.742561582317	948.268011203460	625.791901215744	311.510668266366	1031.124641270068	536.550586314218	368.477111300593	1019.562927611500	451.036874059847	364.423645547394	947.871343185733	396.790012041294	355.893433134813	806.355268916699	362.382268100748	302.811944165250	784.690413514067	234.152167696213	357.060920957841	1087.054804212565	407.579688963049	608.664893244031	1015.101729804667	302.683516421003	667.231679701227	1061.995463338470	208.076823854258	607.383675743628	932.981108129059	43.695130474614	572.662760019463	1102.807304457811	98.837765752004	616.559732349001	1013.016164337913	36.970473419395	650.459132386886	1221.476599328180	44.778699015568	649.213626057298	590.277700642751	177.324411504257	387.807888248492	649.023616020765	127.002103508536	311.913965883368	752.533279309494	133.262008080703	336.877701085151	828.572163656825	30.207579885158	316.702509027166	956.132566388504	1077.273681563657	206.268659005365	1201.286789424562	1009.846329041826	231.031603019742	870.421885477950	1117.277009695437	778.623090903926	853.834733862173	855.487083785300	779.102309755269	
